<svg id="visual" viewBox="0 0 1440 2960" width="1440" height="2960" xmlns="http://www.w3.org/2000/svg" xmlns:xlink="http://www.w3.org/1999/xlink" version="1.1"><rect x="0" y="0" width="1440" height="2960" fill="#001220"></rect><path d="M0 1905L34.3 1881.5C68.7 1858 137.3 1811 205.8 1793.7C274.3 1776.3 342.7 1788.7 411.2 1850.5C479.7 1912.3 548.3 2023.7 617 2036C685.7 2048.3 754.3 1961.7 823 1973.5C891.7 1985.3 960.3 2095.7 1028.8 2078.7C1097.3 2061.7 1165.7 1917.3 1234.2 1864.3C1302.7 1811.3 1371.3 1849.7 1405.7 1868.8L1440 1888L1440 2961L1405.7 2961C1371.3 2961 1302.7 2961 1234.2 2961C1165.7 2961 1097.3 2961 1028.8 2961C960.3 2961 891.7 2961 823 2961C754.3 2961 685.7 2961 617 2961C548.3 2961 479.7 2961 411.2 2961C342.7 2961 274.3 2961 205.8 2961C137.3 2961 68.7 2961 34.3 2961L0 2961Z" fill="#c62368"></path><path d="M0 1955L34.3 2005.7C68.7 2056.3 137.3 2157.7 205.8 2184.7C274.3 2211.7 342.7 2164.3 411.2 2113.3C479.7 2062.3 548.3 2007.7 617 2000C685.7 1992.3 754.3 2031.7 823 2039.3C891.7 2047 960.3 2023 1028.8 2028.7C1097.3 2034.3 1165.7 2069.7 1234.2 2113.3C1302.7 2157 1371.3 2209 1405.7 2235L1440 2261L1440 2961L1405.7 2961C1371.3 2961 1302.7 2961 1234.2 2961C1165.7 2961 1097.3 2961 1028.8 2961C960.3 2961 891.7 2961 823 2961C754.3 2961 685.7 2961 617 2961C548.3 2961 479.7 2961 411.2 2961C342.7 2961 274.3 2961 205.8 2961C137.3 2961 68.7 2961 34.3 2961L0 2961Z" fill="#d53867"></path><path d="M0 2389L34.3 2375.3C68.7 2361.7 137.3 2334.3 205.8 2326.3C274.3 2318.3 342.7 2329.7 411.2 2321.3C479.7 2313 548.3 2285 617 2298C685.7 2311 754.3 2365 823 2363.5C891.7 2362 960.3 2305 1028.8 2266.5C1097.3 2228 1165.7 2208 1234.2 2214C1302.7 2220 1371.3 2252 1405.7 2268L1440 2284L1440 2961L1405.7 2961C1371.3 2961 1302.7 2961 1234.2 2961C1165.7 2961 1097.3 2961 1028.8 2961C960.3 2961 891.7 2961 823 2961C754.3 2961 685.7 2961 617 2961C548.3 2961 479.7 2961 411.2 2961C342.7 2961 274.3 2961 205.8 2961C137.3 2961 68.7 2961 34.3 2961L0 2961Z" fill="#e34c67"></path><path d="M0 2607L34.3 2607.2C68.7 2607.3 137.3 2607.7 205.8 2577.8C274.3 2548 342.7 2488 411.2 2487.2C479.7 2486.3 548.3 2544.7 617 2566.5C685.7 2588.3 754.3 2573.7 823 2553.5C891.7 2533.3 960.3 2507.7 1028.8 2494C1097.3 2480.3 1165.7 2478.7 1234.2 2486.8C1302.7 2495 1371.3 2513 1405.7 2522L1440 2531L1440 2961L1405.7 2961C1371.3 2961 1302.7 2961 1234.2 2961C1165.7 2961 1097.3 2961 1028.8 2961C960.3 2961 891.7 2961 823 2961C754.3 2961 685.7 2961 617 2961C548.3 2961 479.7 2961 411.2 2961C342.7 2961 274.3 2961 205.8 2961C137.3 2961 68.7 2961 34.3 2961L0 2961Z" fill="#ef5f67"></path><path d="M0 2665L34.3 2659.2C68.7 2653.3 137.3 2641.7 205.8 2670C274.3 2698.3 342.7 2766.7 411.2 2762.3C479.7 2758 548.3 2681 617 2663.8C685.7 2646.7 754.3 2689.3 823 2716.8C891.7 2744.3 960.3 2756.7 1028.8 2768.8C1097.3 2781 1165.7 2793 1234.2 2768C1302.7 2743 1371.3 2681 1405.7 2650L1440 2619L1440 2961L1405.7 2961C1371.3 2961 1302.7 2961 1234.2 2961C1165.7 2961 1097.3 2961 1028.8 2961C960.3 2961 891.7 2961 823 2961C754.3 2961 685.7 2961 617 2961C548.3 2961 479.7 2961 411.2 2961C342.7 2961 274.3 2961 205.8 2961C137.3 2961 68.7 2961 34.3 2961L0 2961Z" fill="#fa7268"></path></svg>