<svg id="visual" viewBox="0 0 1440 2560" width="1440" height="2560" xmlns="http://www.w3.org/2000/svg" xmlns:xlink="http://www.w3.org/1999/xlink" version="1.1"><g stroke-width="1" stroke-linejoin="bevel"><path d="M656 1404.4L443 1393.4L465 1598.1Z" fill="#ececec" stroke="#ececec"></path><path d="M423 1157.6L305 1337.4L443 1393.4Z" fill="#f9f9f9" stroke="#f9f9f9"></path><path d="M443 1393.4L305 1337.4L465 1598.1Z" fill="#f3f3f3" stroke="#f3f3f3"></path><path d="M465 1598.1L792 1637.1L656 1404.4Z" fill="#ececec" stroke="#ececec"></path><path d="M305 1337.4L298 1696.1L465 1598.1Z" fill="#f0f0f0" stroke="#f0f0f0"></path><path d="M465 1598.1L684 1824.8L792 1637.1Z" fill="#fdfdfd" stroke="#fdfdfd"></path><path d="M656 1404.4L423 1157.6L443 1393.4Z" fill="#ececec" stroke="#ececec"></path><path d="M443 1910.8L684 1824.8L465 1598.1Z" fill="#f3f3f3" stroke="#f3f3f3"></path><path d="M1019 1208.6L730 1098.6L656 1404.4Z" fill="#f1f1f1" stroke="#f1f1f1"></path><path d="M656 1404.4L730 1098.6L423 1157.6Z" fill="#eeeeee" stroke="#eeeeee"></path><path d="M976 1638.1L974 1436.4L792 1637.1Z" fill="#ececec" stroke="#ececec"></path><path d="M792 1637.1L974 1436.4L656 1404.4Z" fill="#ffffff" stroke="#ffffff"></path><path d="M298 1696.1L443 1910.8L465 1598.1Z" fill="#f3f3f3" stroke="#f3f3f3"></path><path d="M917 1881.8L976 1638.1L792 1637.1Z" fill="#fbfbfb" stroke="#fbfbfb"></path><path d="M232 969.9L232 1107.6L423 1157.6Z" fill="#f9f9f9" stroke="#f9f9f9"></path><path d="M423 1157.6L232 1107.6L305 1337.4Z" fill="#f0f0f0" stroke="#f0f0f0"></path><path d="M305 1337.4L0 1455.4L298 1696.1Z" fill="#f0f0f0" stroke="#f0f0f0"></path><path d="M0 1874.8L246 1910.8L298 1696.1Z" fill="#f9f9f9" stroke="#f9f9f9"></path><path d="M298 1696.1L246 1910.8L443 1910.8Z" fill="#ffffff" stroke="#ffffff"></path><path d="M774 2097.5L917 1881.8L684 1824.8Z" fill="#f0f0f0" stroke="#f0f0f0"></path><path d="M684 1824.8L917 1881.8L792 1637.1Z" fill="#f5f5f5" stroke="#f5f5f5"></path><path d="M0 1134.6L0 1455.4L305 1337.4Z" fill="#eeeeee" stroke="#eeeeee"></path><path d="M1145 1399.4L1019 1208.6L974 1436.4Z" fill="#ffffff" stroke="#ffffff"></path><path d="M974 1436.4L1019 1208.6L656 1404.4Z" fill="#ececec" stroke="#ececec"></path><path d="M999 997.9L670 946.9L730 1098.6Z" fill="#f9f9f9" stroke="#f9f9f9"></path><path d="M730 1098.6L670 946.9L423 1157.6Z" fill="#f9f9f9" stroke="#f9f9f9"></path><path d="M0 1455.4L0 1620.1L298 1696.1Z" fill="#f9f9f9" stroke="#f9f9f9"></path><path d="M670 946.9L537 899.9L423 1157.6Z" fill="#f0f0f0" stroke="#f0f0f0"></path><path d="M537 899.9L232 969.9L423 1157.6Z" fill="#f5f5f5" stroke="#f5f5f5"></path><path d="M232 1107.6L0 1134.6L305 1337.4Z" fill="#f1f1f1" stroke="#f1f1f1"></path><path d="M976 1638.1L1145 1399.4L974 1436.4Z" fill="#f1f1f1" stroke="#f1f1f1"></path><path d="M1234 1568.1L1145 1399.4L976 1638.1Z" fill="#eeeeee" stroke="#eeeeee"></path><path d="M232 969.9L0 1134.6L232 1107.6Z" fill="#f5f5f5" stroke="#f5f5f5"></path><path d="M501 2142.5L774 2097.5L684 1824.8Z" fill="#fbfbfb" stroke="#fbfbfb"></path><path d="M501 2142.5L684 1824.8L443 1910.8Z" fill="#ececec" stroke="#ececec"></path><path d="M294 2119.5L501 2142.5L443 1910.8Z" fill="#f3f3f3" stroke="#f3f3f3"></path><path d="M1235 1174.6L999 997.9L1019 1208.6Z" fill="#f9f9f9" stroke="#f9f9f9"></path><path d="M1019 1208.6L999 997.9L730 1098.6Z" fill="#f1f1f1" stroke="#f1f1f1"></path><path d="M747 635.2L482 722.2L537 899.9Z" fill="#fbfbfb" stroke="#fbfbfb"></path><path d="M0 1620.1L0 1874.8L298 1696.1Z" fill="#ececec" stroke="#ececec"></path><path d="M246 1910.8L294 2119.5L443 1910.8Z" fill="#f0f0f0" stroke="#f0f0f0"></path><path d="M0 2093.5L294 2119.5L246 1910.8Z" fill="#eeeeee" stroke="#eeeeee"></path><path d="M1252 1874.8L976 1638.1L917 1881.8Z" fill="#ececec" stroke="#ececec"></path><path d="M1252 1874.8L1234 1568.1L976 1638.1Z" fill="#fbfbfb" stroke="#fbfbfb"></path><path d="M1145 1399.4L1235 1174.6L1019 1208.6Z" fill="#ffffff" stroke="#ffffff"></path><path d="M774 2097.5L1022 2032.5L917 1881.8Z" fill="#f9f9f9" stroke="#f9f9f9"></path><path d="M1440 1412.4L1235 1174.6L1145 1399.4Z" fill="#fdfdfd" stroke="#fdfdfd"></path><path d="M747 635.2L537 899.9L670 946.9Z" fill="#fdfdfd" stroke="#fdfdfd"></path><path d="M537 899.9L482 722.2L232 969.9Z" fill="#fbfbfb" stroke="#fbfbfb"></path><path d="M232 969.9L0 919.9L0 1134.6Z" fill="#f7f7f7" stroke="#f7f7f7"></path><path d="M176 746.2L0 919.9L232 969.9Z" fill="#f0f0f0" stroke="#f0f0f0"></path><path d="M1022 2032.5L1252 1874.8L917 1881.8Z" fill="#ececec" stroke="#ececec"></path><path d="M1234 1568.1L1440 1412.4L1145 1399.4Z" fill="#f5f5f5" stroke="#f5f5f5"></path><path d="M0 1874.8L0 2093.5L246 1910.8Z" fill="#f3f3f3" stroke="#f3f3f3"></path><path d="M409 2381.3L731 2344.3L501 2142.5Z" fill="#f3f3f3" stroke="#f3f3f3"></path><path d="M482 722.2L176 746.2L232 969.9Z" fill="#f9f9f9" stroke="#f9f9f9"></path><path d="M1235 1174.6L1217 971.9L999 997.9Z" fill="#f9f9f9" stroke="#f9f9f9"></path><path d="M999 997.9L747 635.2L670 946.9Z" fill="#eeeeee" stroke="#eeeeee"></path><path d="M1029 637.2L747 635.2L999 997.9Z" fill="#f7f7f7" stroke="#f7f7f7"></path><path d="M0 425.5L0 711.2L176 746.2Z" fill="#fdfdfd" stroke="#fdfdfd"></path><path d="M409 2381.3L501 2142.5L294 2119.5Z" fill="#eeeeee" stroke="#eeeeee"></path><path d="M501 2142.5L731 2344.3L774 2097.5Z" fill="#f7f7f7" stroke="#f7f7f7"></path><path d="M774 2097.5L992 2361.3L1022 2032.5Z" fill="#ffffff" stroke="#ffffff"></path><path d="M1022 2032.5L1230 2080.5L1252 1874.8Z" fill="#f7f7f7" stroke="#f7f7f7"></path><path d="M1440 1562.1L1440 1412.4L1234 1568.1Z" fill="#fbfbfb" stroke="#fbfbfb"></path><path d="M1235 1174.6L1440 934.9L1217 971.9Z" fill="#ececec" stroke="#ececec"></path><path d="M1440 1842.8L1440 1562.1L1234 1568.1Z" fill="#f1f1f1" stroke="#f1f1f1"></path><path d="M221 2398.3L409 2381.3L294 2119.5Z" fill="#eeeeee" stroke="#eeeeee"></path><path d="M1191 2344.3L1230 2080.5L1022 2032.5Z" fill="#ffffff" stroke="#ffffff"></path><path d="M1252 1874.8L1440 1842.8L1234 1568.1Z" fill="#f0f0f0" stroke="#f0f0f0"></path><path d="M1440 1412.4L1440 1220.6L1235 1174.6Z" fill="#f1f1f1" stroke="#f1f1f1"></path><path d="M313 534.5L176 746.2L482 722.2Z" fill="#fbfbfb" stroke="#fbfbfb"></path><path d="M176 746.2L0 711.2L0 919.9Z" fill="#f7f7f7" stroke="#f7f7f7"></path><path d="M0 2093.5L0 2262.3L294 2119.5Z" fill="#f0f0f0" stroke="#f0f0f0"></path><path d="M1440 2031.5L1440 1842.8L1252 1874.8Z" fill="#f5f5f5" stroke="#f5f5f5"></path><path d="M1029 637.2L727 536.5L747 635.2Z" fill="#f7f7f7" stroke="#f7f7f7"></path><path d="M747 635.2L727 536.5L482 722.2Z" fill="#f0f0f0" stroke="#f0f0f0"></path><path d="M0 2262.3L221 2398.3L294 2119.5Z" fill="#fdfdfd" stroke="#fdfdfd"></path><path d="M1440 762.2L1184 756.2L1217 971.9Z" fill="#ffffff" stroke="#ffffff"></path><path d="M1217 971.9L1184 756.2L999 997.9Z" fill="#fbfbfb" stroke="#fbfbfb"></path><path d="M1184 756.2L1029 637.2L999 997.9Z" fill="#f1f1f1" stroke="#f1f1f1"></path><path d="M471 412.5L313 534.5L482 722.2Z" fill="#f3f3f3" stroke="#f3f3f3"></path><path d="M731 2344.3L992 2361.3L774 2097.5Z" fill="#f9f9f9" stroke="#f9f9f9"></path><path d="M1230 2080.5L1440 2031.5L1252 1874.8Z" fill="#f3f3f3" stroke="#f3f3f3"></path><path d="M901 2560L992 2361.3L731 2344.3Z" fill="#f0f0f0" stroke="#f0f0f0"></path><path d="M519 2560L731 2344.3L409 2381.3Z" fill="#f0f0f0" stroke="#f0f0f0"></path><path d="M1440 2380.3L1440 2031.5L1230 2080.5Z" fill="#f7f7f7" stroke="#f7f7f7"></path><path d="M1440 1220.6L1440 934.9L1235 1174.6Z" fill="#fdfdfd" stroke="#fdfdfd"></path><path d="M1184 756.2L1168 537.5L1029 637.2Z" fill="#f3f3f3" stroke="#f3f3f3"></path><path d="M992 2361.3L1191 2344.3L1022 2032.5Z" fill="#f3f3f3" stroke="#f3f3f3"></path><path d="M179 2560L519 2560L409 2381.3Z" fill="#f1f1f1" stroke="#f1f1f1"></path><path d="M992 2361.3L1134 2560L1191 2344.3Z" fill="#f1f1f1" stroke="#f1f1f1"></path><path d="M428 247.7L471 412.5L778 170.7Z" fill="#f1f1f1" stroke="#f1f1f1"></path><path d="M727 536.5L471 412.5L482 722.2Z" fill="#f3f3f3" stroke="#f3f3f3"></path><path d="M313 534.5L0 425.5L176 746.2Z" fill="#fdfdfd" stroke="#fdfdfd"></path><path d="M519 2560L690 2560L731 2344.3Z" fill="#f7f7f7" stroke="#f7f7f7"></path><path d="M690 2560L901 2560L731 2344.3Z" fill="#f3f3f3" stroke="#f3f3f3"></path><path d="M0 2560L179 2560L221 2398.3Z" fill="#f0f0f0" stroke="#f0f0f0"></path><path d="M221 2398.3L179 2560L409 2381.3Z" fill="#f7f7f7" stroke="#f7f7f7"></path><path d="M1440 762.2L1168 537.5L1184 756.2Z" fill="#eeeeee" stroke="#eeeeee"></path><path d="M1029 637.2L986 398.5L727 536.5Z" fill="#fbfbfb" stroke="#fbfbfb"></path><path d="M1440 934.9L1440 762.2L1217 971.9Z" fill="#f9f9f9" stroke="#f9f9f9"></path><path d="M1168 537.5L986 398.5L1029 637.2Z" fill="#eeeeee" stroke="#eeeeee"></path><path d="M170 236.7L0 425.5L313 534.5Z" fill="#ffffff" stroke="#ffffff"></path><path d="M0 2262.3L0 2560L221 2398.3Z" fill="#f3f3f3" stroke="#f3f3f3"></path><path d="M901 2560L1134 2560L992 2361.3Z" fill="#f9f9f9" stroke="#f9f9f9"></path><path d="M1191 2344.3L1440 2380.3L1230 2080.5Z" fill="#f1f1f1" stroke="#f1f1f1"></path><path d="M778 170.7L471 412.5L727 536.5Z" fill="#f0f0f0" stroke="#f0f0f0"></path><path d="M471 412.5L428 247.7L313 534.5Z" fill="#eeeeee" stroke="#eeeeee"></path><path d="M1440 2560L1440 2380.3L1191 2344.3Z" fill="#ffffff" stroke="#ffffff"></path><path d="M1206 302.7L995 279.7L986 398.5Z" fill="#ffffff" stroke="#ffffff"></path><path d="M986 398.5L778 170.7L727 536.5Z" fill="#f3f3f3" stroke="#f3f3f3"></path><path d="M1206 302.7L986 398.5L1168 537.5Z" fill="#f7f7f7" stroke="#f7f7f7"></path><path d="M428 247.7L170 236.7L313 534.5Z" fill="#f7f7f7" stroke="#f7f7f7"></path><path d="M995 279.7L778 170.7L986 398.5Z" fill="#f3f3f3" stroke="#f3f3f3"></path><path d="M204 0L0 164.7L170 236.7Z" fill="#f0f0f0" stroke="#f0f0f0"></path><path d="M1440 429.5L1206 302.7L1168 537.5Z" fill="#f9f9f9" stroke="#f9f9f9"></path><path d="M949 0L788 0L778 170.7Z" fill="#f1f1f1" stroke="#f1f1f1"></path><path d="M1440 762.2L1440 429.5L1168 537.5Z" fill="#f5f5f5" stroke="#f5f5f5"></path><path d="M1134 2560L1440 2560L1191 2344.3Z" fill="#f5f5f5" stroke="#f5f5f5"></path><path d="M204 0L170 236.7L428 247.7Z" fill="#f7f7f7" stroke="#f7f7f7"></path><path d="M170 236.7L0 164.7L0 425.5Z" fill="#f9f9f9" stroke="#f9f9f9"></path><path d="M788 0L518 0L778 170.7Z" fill="#f5f5f5" stroke="#f5f5f5"></path><path d="M778 170.7L518 0L428 247.7Z" fill="#f1f1f1" stroke="#f1f1f1"></path><path d="M1440 429.5L1440 294.7L1206 302.7Z" fill="#f5f5f5" stroke="#f5f5f5"></path><path d="M949 0L778 170.7L995 279.7Z" fill="#fdfdfd" stroke="#fdfdfd"></path><path d="M949 0L995 279.7L1145 0Z" fill="#f7f7f7" stroke="#f7f7f7"></path><path d="M518 0L204 0L428 247.7Z" fill="#ffffff" stroke="#ffffff"></path><path d="M1145 0L995 279.7L1206 302.7Z" fill="#fbfbfb" stroke="#fbfbfb"></path><path d="M204 0L0 0L0 164.7Z" fill="#eeeeee" stroke="#eeeeee"></path><path d="M1440 0L1145 0L1206 302.7Z" fill="#ffffff" stroke="#ffffff"></path><path d="M1440 294.7L1440 0L1206 302.7Z" fill="#f1f1f1" stroke="#f1f1f1"></path></g></svg>