<svg id="visual" viewBox="0 0 1440 2560" width="1440" height="2560" xmlns="http://www.w3.org/2000/svg" xmlns:xlink="http://www.w3.org/1999/xlink" version="1.1"><g stroke-width="1" stroke-linejoin="bevel"><path d="M777 1319L675 1422L778 1424Z" fill="#f0f0f0" stroke="#f0f0f0"></path><path d="M777 1319L643 1252L675 1422Z" fill="#eeeeee" stroke="#eeeeee"></path><path d="M675 1422L763 1565L778 1424Z" fill="#f7f7f7" stroke="#f7f7f7"></path><path d="M465 1460L667 1565L675 1422Z" fill="#eeeeee" stroke="#eeeeee"></path><path d="M675 1422L667 1565L763 1565Z" fill="#ffffff" stroke="#ffffff"></path><path d="M763 1565L941 1453L778 1424Z" fill="#fdfdfd" stroke="#fdfdfd"></path><path d="M778 1424L941 1453L777 1319Z" fill="#eeeeee" stroke="#eeeeee"></path><path d="M814 1124L645 1145L643 1252Z" fill="#ffffff" stroke="#ffffff"></path><path d="M814 1124L643 1252L777 1319Z" fill="#f9f9f9" stroke="#f9f9f9"></path><path d="M980 1275L814 1124L777 1319Z" fill="#fdfdfd" stroke="#fdfdfd"></path><path d="M645 1145L478 1284L643 1252Z" fill="#f3f3f3" stroke="#f3f3f3"></path><path d="M643 1252L478 1284L675 1422Z" fill="#f9f9f9" stroke="#f9f9f9"></path><path d="M941 1453L980 1275L777 1319Z" fill="#f1f1f1" stroke="#f1f1f1"></path><path d="M478 1284L465 1460L675 1422Z" fill="#f3f3f3" stroke="#f3f3f3"></path><path d="M763 1565L955 1561L941 1453Z" fill="#f7f7f7" stroke="#f7f7f7"></path><path d="M941 1453L1126 1417L980 1275Z" fill="#eeeeee" stroke="#eeeeee"></path><path d="M465 1460L513 1608L667 1565Z" fill="#ececec" stroke="#ececec"></path><path d="M667 1565L660 1757L763 1565Z" fill="#f5f5f5" stroke="#f5f5f5"></path><path d="M763 1565L921 1774L955 1561Z" fill="#ffffff" stroke="#ffffff"></path><path d="M980 1275L960 1082L814 1124Z" fill="#ffffff" stroke="#ffffff"></path><path d="M636 977L458 1099L645 1145Z" fill="#ffffff" stroke="#ffffff"></path><path d="M636 977L645 1145L775 961Z" fill="#f7f7f7" stroke="#f7f7f7"></path><path d="M645 1145L458 1099L478 1284Z" fill="#fbfbfb" stroke="#fbfbfb"></path><path d="M478 1284L342 1410L465 1460Z" fill="#f7f7f7" stroke="#f7f7f7"></path><path d="M296 1304L342 1410L478 1284Z" fill="#f3f3f3" stroke="#f3f3f3"></path><path d="M465 1460L313 1616L513 1608Z" fill="#ececec" stroke="#ececec"></path><path d="M513 1608L660 1757L667 1565Z" fill="#f3f3f3" stroke="#f3f3f3"></path><path d="M1099 1573L1126 1417L941 1453Z" fill="#f7f7f7" stroke="#f7f7f7"></path><path d="M980 1275L1119 1153L960 1082Z" fill="#eeeeee" stroke="#eeeeee"></path><path d="M775 961L645 1145L814 1124Z" fill="#f1f1f1" stroke="#f1f1f1"></path><path d="M939 948L775 961L814 1124Z" fill="#f9f9f9" stroke="#f9f9f9"></path><path d="M1126 1417L1138 1276L980 1275Z" fill="#fdfdfd" stroke="#fdfdfd"></path><path d="M1099 1741L1099 1573L955 1561Z" fill="#fdfdfd" stroke="#fdfdfd"></path><path d="M955 1561L1099 1573L941 1453Z" fill="#f5f5f5" stroke="#f5f5f5"></path><path d="M660 1757L822 1787L763 1565Z" fill="#ececec" stroke="#ececec"></path><path d="M347 1128L296 1304L478 1284Z" fill="#f1f1f1" stroke="#f1f1f1"></path><path d="M513 1608L489 1739L660 1757Z" fill="#ececec" stroke="#ececec"></path><path d="M784 1936L943 1883L822 1787Z" fill="#eeeeee" stroke="#eeeeee"></path><path d="M357 1748L489 1739L513 1608Z" fill="#ececec" stroke="#ececec"></path><path d="M822 1787L921 1774L763 1565Z" fill="#f0f0f0" stroke="#f0f0f0"></path><path d="M1138 1276L1119 1153L980 1275Z" fill="#f0f0f0" stroke="#f0f0f0"></path><path d="M960 1082L939 948L814 1124Z" fill="#eeeeee" stroke="#eeeeee"></path><path d="M348 989L347 1128L458 1099Z" fill="#f1f1f1" stroke="#f1f1f1"></path><path d="M458 1099L347 1128L478 1284Z" fill="#f1f1f1" stroke="#f1f1f1"></path><path d="M1100 983L939 948L960 1082Z" fill="#fdfdfd" stroke="#fdfdfd"></path><path d="M165 1457L313 1616L342 1410Z" fill="#f9f9f9" stroke="#f9f9f9"></path><path d="M342 1410L313 1616L465 1460Z" fill="#f0f0f0" stroke="#f0f0f0"></path><path d="M652 797L514 940L636 977Z" fill="#f9f9f9" stroke="#f9f9f9"></path><path d="M636 977L514 940L458 1099Z" fill="#f7f7f7" stroke="#f7f7f7"></path><path d="M652 797L636 977L775 961Z" fill="#ececec" stroke="#ececec"></path><path d="M921 1774L1099 1741L955 1561Z" fill="#eeeeee" stroke="#eeeeee"></path><path d="M1099 1573L1267 1475L1126 1417Z" fill="#ececec" stroke="#ececec"></path><path d="M1126 1417L1312 1317L1138 1276Z" fill="#fbfbfb" stroke="#fbfbfb"></path><path d="M313 1616L357 1748L513 1608Z" fill="#f5f5f5" stroke="#f5f5f5"></path><path d="M784 1936L822 1787L660 1757Z" fill="#fdfdfd" stroke="#fdfdfd"></path><path d="M1253 965L1100 983L1119 1153Z" fill="#eeeeee" stroke="#eeeeee"></path><path d="M1119 1153L1100 983L960 1082Z" fill="#f7f7f7" stroke="#f7f7f7"></path><path d="M514 940L348 989L458 1099Z" fill="#f5f5f5" stroke="#f5f5f5"></path><path d="M144 1243L165 1457L296 1304Z" fill="#fdfdfd" stroke="#fdfdfd"></path><path d="M1317 1571L1267 1475L1099 1573Z" fill="#f3f3f3" stroke="#f3f3f3"></path><path d="M1138 1276L1306 1136L1119 1153Z" fill="#fdfdfd" stroke="#fdfdfd"></path><path d="M822 1787L943 1883L921 1774Z" fill="#fbfbfb" stroke="#fbfbfb"></path><path d="M921 1774L943 1883L1099 1741Z" fill="#f3f3f3" stroke="#f3f3f3"></path><path d="M630 1918L660 1757L489 1739Z" fill="#f1f1f1" stroke="#f1f1f1"></path><path d="M443 1918L630 1918L489 1739Z" fill="#fbfbfb" stroke="#fbfbfb"></path><path d="M630 1918L784 1936L660 1757Z" fill="#f7f7f7" stroke="#f7f7f7"></path><path d="M144 1243L296 1304L158 1156Z" fill="#f7f7f7" stroke="#f7f7f7"></path><path d="M296 1304L165 1457L342 1410Z" fill="#f7f7f7" stroke="#f7f7f7"></path><path d="M313 1616L133 1732L357 1748Z" fill="#fbfbfb" stroke="#fbfbfb"></path><path d="M941 788L761 801L939 948Z" fill="#f3f3f3" stroke="#f3f3f3"></path><path d="M939 948L761 801L775 961Z" fill="#f3f3f3" stroke="#f3f3f3"></path><path d="M514 940L291 826L348 989Z" fill="#fbfbfb" stroke="#fbfbfb"></path><path d="M761 801L652 797L775 961Z" fill="#f1f1f1" stroke="#f1f1f1"></path><path d="M1267 1475L1312 1317L1126 1417Z" fill="#f9f9f9" stroke="#f9f9f9"></path><path d="M158 1156L296 1304L347 1128Z" fill="#eeeeee" stroke="#eeeeee"></path><path d="M0 1473L151 1562L165 1457Z" fill="#f9f9f9" stroke="#f9f9f9"></path><path d="M165 1457L151 1562L313 1616Z" fill="#ececec" stroke="#ececec"></path><path d="M185 972L158 1156L347 1128Z" fill="#f9f9f9" stroke="#f9f9f9"></path><path d="M357 1748L443 1918L489 1739Z" fill="#f0f0f0" stroke="#f0f0f0"></path><path d="M627 2087L829 2079L784 1936Z" fill="#f1f1f1" stroke="#f1f1f1"></path><path d="M345 1894L443 1918L357 1748Z" fill="#f9f9f9" stroke="#f9f9f9"></path><path d="M1110 839L941 788L939 948Z" fill="#ffffff" stroke="#ffffff"></path><path d="M604 652L494 767L652 797Z" fill="#f5f5f5" stroke="#f5f5f5"></path><path d="M1318 1721L1317 1571L1099 1573Z" fill="#eeeeee" stroke="#eeeeee"></path><path d="M1267 1475L1440 1453L1312 1317Z" fill="#fbfbfb" stroke="#fbfbfb"></path><path d="M1318 1721L1099 1573L1099 1741Z" fill="#fdfdfd" stroke="#fdfdfd"></path><path d="M1312 1317L1306 1136L1138 1276Z" fill="#f7f7f7" stroke="#f7f7f7"></path><path d="M1100 983L1110 839L939 948Z" fill="#f3f3f3" stroke="#f3f3f3"></path><path d="M920 2091L1104 1889L943 1883Z" fill="#ececec" stroke="#ececec"></path><path d="M943 1883L1104 1889L1099 1741Z" fill="#f0f0f0" stroke="#f0f0f0"></path><path d="M133 1732L345 1894L357 1748Z" fill="#f3f3f3" stroke="#f3f3f3"></path><path d="M780 659L652 797L761 801Z" fill="#f7f7f7" stroke="#f7f7f7"></path><path d="M652 797L494 767L514 940Z" fill="#f0f0f0" stroke="#f0f0f0"></path><path d="M348 989L185 972L347 1128Z" fill="#f5f5f5" stroke="#f5f5f5"></path><path d="M1253 965L1110 839L1100 983Z" fill="#f7f7f7" stroke="#f7f7f7"></path><path d="M1306 1136L1253 965L1119 1153Z" fill="#f9f9f9" stroke="#f9f9f9"></path><path d="M291 826L185 972L348 989Z" fill="#fdfdfd" stroke="#fdfdfd"></path><path d="M158 1156L0 1271L144 1243Z" fill="#f1f1f1" stroke="#f1f1f1"></path><path d="M1253 1902L1318 1721L1099 1741Z" fill="#eeeeee" stroke="#eeeeee"></path><path d="M0 1565L133 1732L151 1562Z" fill="#f7f7f7" stroke="#f7f7f7"></path><path d="M151 1562L133 1732L313 1616Z" fill="#ececec" stroke="#ececec"></path><path d="M494 767L291 826L514 940Z" fill="#ececec" stroke="#ececec"></path><path d="M627 2087L784 1936L630 1918Z" fill="#f0f0f0" stroke="#f0f0f0"></path><path d="M784 1936L829 2079L943 1883Z" fill="#ececec" stroke="#ececec"></path><path d="M627 2087L630 1918L485 2054Z" fill="#f1f1f1" stroke="#f1f1f1"></path><path d="M946 671L780 659L941 788Z" fill="#f3f3f3" stroke="#f3f3f3"></path><path d="M941 788L780 659L761 801Z" fill="#f1f1f1" stroke="#f1f1f1"></path><path d="M494 767L293 671L291 826Z" fill="#f1f1f1" stroke="#f1f1f1"></path><path d="M1440 1597L1440 1453L1317 1571Z" fill="#fdfdfd" stroke="#fdfdfd"></path><path d="M1317 1571L1440 1453L1267 1475Z" fill="#fdfdfd" stroke="#fdfdfd"></path><path d="M1312 1317L1440 1287L1306 1136Z" fill="#f9f9f9" stroke="#f9f9f9"></path><path d="M1306 1136L1440 1113L1253 965Z" fill="#ececec" stroke="#ececec"></path><path d="M1440 1453L1440 1287L1312 1317Z" fill="#ececec" stroke="#ececec"></path><path d="M485 2054L630 1918L443 1918Z" fill="#fdfdfd" stroke="#fdfdfd"></path><path d="M304 2119L443 1918L345 1894Z" fill="#f0f0f0" stroke="#f0f0f0"></path><path d="M304 2119L485 2054L443 1918Z" fill="#f7f7f7" stroke="#f7f7f7"></path><path d="M780 659L604 652L652 797Z" fill="#ffffff" stroke="#ffffff"></path><path d="M1099 667L941 788L1110 839Z" fill="#f7f7f7" stroke="#f7f7f7"></path><path d="M1099 667L946 671L941 788Z" fill="#ececec" stroke="#ececec"></path><path d="M0 1096L0 1271L158 1156Z" fill="#f9f9f9" stroke="#f9f9f9"></path><path d="M144 1243L0 1271L165 1457Z" fill="#eeeeee" stroke="#eeeeee"></path><path d="M0 1271L0 1473L165 1457Z" fill="#f5f5f5" stroke="#f5f5f5"></path><path d="M829 2079L920 2091L943 1883Z" fill="#f5f5f5" stroke="#f5f5f5"></path><path d="M1104 1889L1253 1902L1099 1741Z" fill="#fbfbfb" stroke="#fbfbfb"></path><path d="M772 2234L920 2091L829 2079Z" fill="#f9f9f9" stroke="#f9f9f9"></path><path d="M1156 2095L1253 1902L1104 1889Z" fill="#ffffff" stroke="#ffffff"></path><path d="M1318 1721L1440 1597L1317 1571Z" fill="#f9f9f9" stroke="#f9f9f9"></path><path d="M1440 1795L1440 1597L1318 1721Z" fill="#f1f1f1" stroke="#f1f1f1"></path><path d="M0 1473L0 1565L151 1562Z" fill="#ffffff" stroke="#ffffff"></path><path d="M1440 1287L1440 1113L1306 1136Z" fill="#fdfdfd" stroke="#fdfdfd"></path><path d="M1278 678L1099 667L1110 839Z" fill="#f9f9f9" stroke="#f9f9f9"></path><path d="M185 972L0 1096L158 1156Z" fill="#f0f0f0" stroke="#f0f0f0"></path><path d="M0 926L0 1096L185 972Z" fill="#f9f9f9" stroke="#f9f9f9"></path><path d="M502 462L499 628L604 652Z" fill="#ececec" stroke="#ececec"></path><path d="M604 652L499 628L494 767Z" fill="#f1f1f1" stroke="#f1f1f1"></path><path d="M291 826L170 784L185 972Z" fill="#ececec" stroke="#ececec"></path><path d="M665 456L604 652L780 659Z" fill="#fbfbfb" stroke="#fbfbfb"></path><path d="M1305 761L1110 839L1253 965Z" fill="#fbfbfb" stroke="#fbfbfb"></path><path d="M946 671L832 457L780 659Z" fill="#f3f3f3" stroke="#f3f3f3"></path><path d="M0 1955L181 1954L133 1732Z" fill="#eeeeee" stroke="#eeeeee"></path><path d="M133 1732L181 1954L345 1894Z" fill="#fbfbfb" stroke="#fbfbfb"></path><path d="M293 671L170 784L291 826Z" fill="#fdfdfd" stroke="#fdfdfd"></path><path d="M0 1565L0 1757L133 1732Z" fill="#f3f3f3" stroke="#f3f3f3"></path><path d="M499 628L293 671L494 767Z" fill="#f1f1f1" stroke="#f1f1f1"></path><path d="M1253 1902L1440 1795L1318 1721Z" fill="#ffffff" stroke="#ffffff"></path><path d="M1093 2232L1156 2095L920 2091Z" fill="#f5f5f5" stroke="#f5f5f5"></path><path d="M920 2091L1156 2095L1104 1889Z" fill="#ffffff" stroke="#ffffff"></path><path d="M1253 1902L1440 1883L1440 1795Z" fill="#f5f5f5" stroke="#f5f5f5"></path><path d="M1440 1113L1440 926L1253 965Z" fill="#fdfdfd" stroke="#fdfdfd"></path><path d="M1440 926L1305 761L1253 965Z" fill="#fdfdfd" stroke="#fdfdfd"></path><path d="M485 2054L622 2215L627 2087Z" fill="#f1f1f1" stroke="#f1f1f1"></path><path d="M627 2087L772 2234L829 2079Z" fill="#f3f3f3" stroke="#f3f3f3"></path><path d="M519 2269L622 2215L485 2054Z" fill="#ececec" stroke="#ececec"></path><path d="M0 798L0 926L170 784Z" fill="#ececec" stroke="#ececec"></path><path d="M170 784L0 926L185 972Z" fill="#ffffff" stroke="#ffffff"></path><path d="M179 2111L304 2119L181 1954Z" fill="#f7f7f7" stroke="#f7f7f7"></path><path d="M181 1954L304 2119L345 1894Z" fill="#eeeeee" stroke="#eeeeee"></path><path d="M622 2215L772 2234L627 2087Z" fill="#f5f5f5" stroke="#f5f5f5"></path><path d="M1289 2267L1245 2076L1156 2095Z" fill="#fbfbfb" stroke="#fbfbfb"></path><path d="M1156 2095L1245 2076L1253 1902Z" fill="#fdfdfd" stroke="#fdfdfd"></path><path d="M1440 2049L1440 1883L1253 1902Z" fill="#f0f0f0" stroke="#f0f0f0"></path><path d="M1440 611L1278 678L1305 761Z" fill="#f9f9f9" stroke="#f9f9f9"></path><path d="M1305 761L1278 678L1110 839Z" fill="#f5f5f5" stroke="#f5f5f5"></path><path d="M1099 667L964 489L946 671Z" fill="#f0f0f0" stroke="#f0f0f0"></path><path d="M772 2234L965 2233L920 2091Z" fill="#f9f9f9" stroke="#f9f9f9"></path><path d="M1440 926L1440 808L1305 761Z" fill="#ffffff" stroke="#ffffff"></path><path d="M1156 484L964 489L1099 667Z" fill="#ffffff" stroke="#ffffff"></path><path d="M499 628L353 445L293 671Z" fill="#f5f5f5" stroke="#f5f5f5"></path><path d="M832 457L665 456L780 659Z" fill="#ffffff" stroke="#ffffff"></path><path d="M0 2050L179 2111L181 1954Z" fill="#fdfdfd" stroke="#fdfdfd"></path><path d="M304 2119L519 2269L485 2054Z" fill="#f3f3f3" stroke="#f3f3f3"></path><path d="M964 489L832 457L946 671Z" fill="#f3f3f3" stroke="#f3f3f3"></path><path d="M308 2250L519 2269L304 2119Z" fill="#fdfdfd" stroke="#fdfdfd"></path><path d="M622 2215L762 2372L772 2234Z" fill="#fbfbfb" stroke="#fbfbfb"></path><path d="M772 2234L762 2372L965 2233Z" fill="#fbfbfb" stroke="#fbfbfb"></path><path d="M0 659L0 798L170 784Z" fill="#ffffff" stroke="#ffffff"></path><path d="M127 618L170 784L293 671Z" fill="#ececec" stroke="#ececec"></path><path d="M0 1757L0 1955L133 1732Z" fill="#f5f5f5" stroke="#f5f5f5"></path><path d="M1110 2404L1093 2232L965 2233Z" fill="#ffffff" stroke="#ffffff"></path><path d="M965 2233L1093 2232L920 2091Z" fill="#f9f9f9" stroke="#f9f9f9"></path><path d="M1245 2076L1440 2049L1253 1902Z" fill="#f1f1f1" stroke="#f1f1f1"></path><path d="M665 456L502 462L604 652Z" fill="#fdfdfd" stroke="#fdfdfd"></path><path d="M141 517L127 618L293 671Z" fill="#f1f1f1" stroke="#f1f1f1"></path><path d="M179 2111L308 2250L304 2119Z" fill="#f0f0f0" stroke="#f0f0f0"></path><path d="M153 2275L308 2250L179 2111Z" fill="#eeeeee" stroke="#eeeeee"></path><path d="M1440 2207L1440 2049L1245 2076Z" fill="#f1f1f1" stroke="#f1f1f1"></path><path d="M1278 678L1156 484L1099 667Z" fill="#f0f0f0" stroke="#f0f0f0"></path><path d="M964 489L833 347L832 457Z" fill="#f9f9f9" stroke="#f9f9f9"></path><path d="M1302 450L1156 484L1278 678Z" fill="#f5f5f5" stroke="#f5f5f5"></path><path d="M0 1955L0 2050L181 1954Z" fill="#ececec" stroke="#ececec"></path><path d="M485 299L353 445L502 462Z" fill="#fbfbfb" stroke="#fbfbfb"></path><path d="M502 462L353 445L499 628Z" fill="#f0f0f0" stroke="#f0f0f0"></path><path d="M669 323L502 462L665 456Z" fill="#f9f9f9" stroke="#f9f9f9"></path><path d="M613 2411L622 2215L519 2269Z" fill="#f1f1f1" stroke="#f1f1f1"></path><path d="M613 2411L762 2372L622 2215Z" fill="#ececec" stroke="#ececec"></path><path d="M0 492L0 659L127 618Z" fill="#fbfbfb" stroke="#fbfbfb"></path><path d="M127 618L0 659L170 784Z" fill="#f5f5f5" stroke="#f5f5f5"></path><path d="M995 310L833 347L964 489Z" fill="#eeeeee" stroke="#eeeeee"></path><path d="M832 457L833 347L665 456Z" fill="#f3f3f3" stroke="#f3f3f3"></path><path d="M353 445L141 517L293 671Z" fill="#f0f0f0" stroke="#f0f0f0"></path><path d="M1440 808L1440 611L1305 761Z" fill="#f7f7f7" stroke="#f7f7f7"></path><path d="M499 2403L613 2411L519 2269Z" fill="#f3f3f3" stroke="#f3f3f3"></path><path d="M833 347L669 323L665 456Z" fill="#f0f0f0" stroke="#f0f0f0"></path><path d="M158 299L0 492L141 517Z" fill="#f3f3f3" stroke="#f3f3f3"></path><path d="M288 2412L499 2403L308 2250Z" fill="#f1f1f1" stroke="#f1f1f1"></path><path d="M308 2250L499 2403L519 2269Z" fill="#f3f3f3" stroke="#f3f3f3"></path><path d="M1248 2374L1289 2267L1093 2232Z" fill="#fdfdfd" stroke="#fdfdfd"></path><path d="M1093 2232L1289 2267L1156 2095Z" fill="#f3f3f3" stroke="#f3f3f3"></path><path d="M964 2417L965 2233L762 2372Z" fill="#f5f5f5" stroke="#f5f5f5"></path><path d="M0 2202L153 2275L179 2111Z" fill="#f0f0f0" stroke="#f0f0f0"></path><path d="M806 2560L964 2417L762 2372Z" fill="#ffffff" stroke="#ffffff"></path><path d="M1440 611L1302 450L1278 678Z" fill="#fbfbfb" stroke="#fbfbfb"></path><path d="M1156 484L995 310L964 489Z" fill="#fbfbfb" stroke="#fbfbfb"></path><path d="M1089 280L995 310L1156 484Z" fill="#f5f5f5" stroke="#f5f5f5"></path><path d="M833 347L791 159L669 323Z" fill="#f0f0f0" stroke="#f0f0f0"></path><path d="M1289 2267L1440 2207L1245 2076Z" fill="#f5f5f5" stroke="#f5f5f5"></path><path d="M1440 2413L1440 2207L1289 2267Z" fill="#f3f3f3" stroke="#f3f3f3"></path><path d="M511 176L485 299L669 323Z" fill="#f3f3f3" stroke="#f3f3f3"></path><path d="M669 323L485 299L502 462Z" fill="#fbfbfb" stroke="#fbfbfb"></path><path d="M964 2417L1110 2404L965 2233Z" fill="#fdfdfd" stroke="#fdfdfd"></path><path d="M0 2050L0 2202L179 2111Z" fill="#fbfbfb" stroke="#fbfbfb"></path><path d="M190 2410L308 2250L153 2275Z" fill="#f1f1f1" stroke="#f1f1f1"></path><path d="M190 2410L288 2412L308 2250Z" fill="#fdfdfd" stroke="#fdfdfd"></path><path d="M635 2560L762 2372L613 2411Z" fill="#f0f0f0" stroke="#f0f0f0"></path><path d="M635 2560L806 2560L762 2372Z" fill="#f0f0f0" stroke="#f0f0f0"></path><path d="M1110 2404L1248 2374L1093 2232Z" fill="#fdfdfd" stroke="#fdfdfd"></path><path d="M141 517L0 492L127 618Z" fill="#ffffff" stroke="#ffffff"></path><path d="M284 316L141 517L353 445Z" fill="#f0f0f0" stroke="#f0f0f0"></path><path d="M485 299L284 316L353 445Z" fill="#f3f3f3" stroke="#f3f3f3"></path><path d="M1259 335L1089 280L1156 484Z" fill="#ffffff" stroke="#ffffff"></path><path d="M970 161L791 159L833 347Z" fill="#f3f3f3" stroke="#f3f3f3"></path><path d="M1440 611L1440 453L1302 450Z" fill="#fbfbfb" stroke="#fbfbfb"></path><path d="M1302 450L1259 335L1156 484Z" fill="#f5f5f5" stroke="#f5f5f5"></path><path d="M1440 331L1259 335L1302 450Z" fill="#f7f7f7" stroke="#f7f7f7"></path><path d="M0 2432L190 2410L153 2275Z" fill="#ffffff" stroke="#ffffff"></path><path d="M613 2411L499 2403L509 2560Z" fill="#fbfbfb" stroke="#fbfbfb"></path><path d="M635 2560L613 2411L509 2560Z" fill="#f7f7f7" stroke="#f7f7f7"></path><path d="M964 2417L983 2560L1110 2404Z" fill="#f3f3f3" stroke="#f3f3f3"></path><path d="M1110 2404L1143 2560L1248 2374Z" fill="#f1f1f1" stroke="#f1f1f1"></path><path d="M509 2560L499 2403L336 2560Z" fill="#f3f3f3" stroke="#f3f3f3"></path><path d="M336 2560L499 2403L288 2412Z" fill="#f7f7f7" stroke="#f7f7f7"></path><path d="M970 161L995 310L1089 280Z" fill="#f9f9f9" stroke="#f9f9f9"></path><path d="M970 161L833 347L995 310Z" fill="#ffffff" stroke="#ffffff"></path><path d="M301 187L158 299L284 316Z" fill="#f7f7f7" stroke="#f7f7f7"></path><path d="M301 187L284 316L485 299Z" fill="#eeeeee" stroke="#eeeeee"></path><path d="M284 316L158 299L141 517Z" fill="#fbfbfb" stroke="#fbfbfb"></path><path d="M806 2560L983 2560L964 2417Z" fill="#f9f9f9" stroke="#f9f9f9"></path><path d="M620 131L511 176L669 323Z" fill="#ececec" stroke="#ececec"></path><path d="M1159 125L970 161L1089 280Z" fill="#fdfdfd" stroke="#fdfdfd"></path><path d="M773 0L620 131L791 159Z" fill="#eeeeee" stroke="#eeeeee"></path><path d="M791 159L620 131L669 323Z" fill="#f7f7f7" stroke="#f7f7f7"></path><path d="M511 176L301 187L485 299Z" fill="#f7f7f7" stroke="#f7f7f7"></path><path d="M189 2560L336 2560L288 2412Z" fill="#f3f3f3" stroke="#f3f3f3"></path><path d="M983 2560L1143 2560L1110 2404Z" fill="#f3f3f3" stroke="#f3f3f3"></path><path d="M1248 2374L1440 2413L1289 2267Z" fill="#f9f9f9" stroke="#f9f9f9"></path><path d="M328 0L301 187L511 176Z" fill="#f1f1f1" stroke="#f1f1f1"></path><path d="M1259 335L1159 125L1089 280Z" fill="#f5f5f5" stroke="#f5f5f5"></path><path d="M1440 453L1440 331L1302 450Z" fill="#fbfbfb" stroke="#fbfbfb"></path><path d="M1301 2560L1440 2413L1248 2374Z" fill="#f7f7f7" stroke="#f7f7f7"></path><path d="M0 2202L0 2432L153 2275Z" fill="#ffffff" stroke="#ffffff"></path><path d="M190 2410L189 2560L288 2412Z" fill="#f5f5f5" stroke="#f5f5f5"></path><path d="M127 188L0 304L158 299Z" fill="#ececec" stroke="#ececec"></path><path d="M158 299L0 304L0 492Z" fill="#ececec" stroke="#ececec"></path><path d="M0 2432L189 2560L190 2410Z" fill="#eeeeee" stroke="#eeeeee"></path><path d="M1143 2560L1301 2560L1248 2374Z" fill="#fbfbfb" stroke="#fbfbfb"></path><path d="M1247 121L1159 125L1259 335Z" fill="#f0f0f0" stroke="#f0f0f0"></path><path d="M970 161L773 0L791 159Z" fill="#f7f7f7" stroke="#f7f7f7"></path><path d="M172 0L127 188L301 187Z" fill="#eeeeee" stroke="#eeeeee"></path><path d="M301 187L127 188L158 299Z" fill="#f7f7f7" stroke="#f7f7f7"></path><path d="M1440 161L1247 121L1259 335Z" fill="#f1f1f1" stroke="#f1f1f1"></path><path d="M997 0L773 0L970 161Z" fill="#f5f5f5" stroke="#f5f5f5"></path><path d="M997 0L970 161L1099 0Z" fill="#f0f0f0" stroke="#f0f0f0"></path><path d="M620 131L515 0L511 176Z" fill="#ececec" stroke="#ececec"></path><path d="M773 0L639 0L620 131Z" fill="#fbfbfb" stroke="#fbfbfb"></path><path d="M0 0L0 198L127 188Z" fill="#ffffff" stroke="#ffffff"></path><path d="M127 188L0 198L0 304Z" fill="#eeeeee" stroke="#eeeeee"></path><path d="M1301 2560L1440 2560L1440 2413Z" fill="#f0f0f0" stroke="#f0f0f0"></path><path d="M639 0L515 0L620 131Z" fill="#f3f3f3" stroke="#f3f3f3"></path><path d="M0 2432L0 2560L189 2560Z" fill="#f7f7f7" stroke="#f7f7f7"></path><path d="M1099 0L970 161L1159 125Z" fill="#f9f9f9" stroke="#f9f9f9"></path><path d="M1440 331L1440 161L1259 335Z" fill="#f5f5f5" stroke="#f5f5f5"></path><path d="M1269 0L1099 0L1159 125Z" fill="#f0f0f0" stroke="#f0f0f0"></path><path d="M1269 0L1159 125L1247 121Z" fill="#fbfbfb" stroke="#fbfbfb"></path><path d="M515 0L328 0L511 176Z" fill="#f5f5f5" stroke="#f5f5f5"></path><path d="M1440 0L1269 0L1247 121Z" fill="#ececec" stroke="#ececec"></path><path d="M328 0L172 0L301 187Z" fill="#f3f3f3" stroke="#f3f3f3"></path><path d="M1440 161L1440 0L1247 121Z" fill="#f9f9f9" stroke="#f9f9f9"></path><path d="M172 0L0 0L127 188Z" fill="#f7f7f7" stroke="#f7f7f7"></path></g></svg>