<svg id="visual" viewBox="0 0 1440 2560" width="1440" height="2560" xmlns="http://www.w3.org/2000/svg" xmlns:xlink="http://www.w3.org/1999/xlink" version="1.1"><rect x="0" y="0" width="1440" height="2560" fill="#ffffff"></rect><path d="M0 1017L360 768L720 1009L1080 639L1440 1032L1440 0L1080 0L720 0L360 0L0 0Z" fill="#ffffff"></path><path d="M0 684L360 705L720 886L1080 924L1440 929L1440 0L1080 0L720 0L360 0L0 0Z" fill="#edeceb"></path><path d="M0 817L360 560L720 510L1080 656L1440 542L1440 0L1080 0L720 0L360 0L0 0Z" fill="#dcdad6"></path><path d="M0 598L360 443L720 566L1080 531L1440 592L1440 0L1080 0L720 0L360 0L0 0Z" fill="#cbc8c3"></path><path d="M0 478L360 544L720 438L1080 412L1440 362L1440 0L1080 0L720 0L360 0L0 0Z" fill="#b9b6af"></path><path d="M0 409L360 391L720 273L1080 357L1440 443L1440 0L1080 0L720 0L360 0L0 0Z" fill="#a9a49c"></path><path d="M0 285L360 204L720 236L1080 346L1440 356L1440 0L1080 0L720 0L360 0L0 0Z" fill="#989389"></path><path d="M0 171L360 195L720 127L1080 208L1440 225L1440 0L1080 0L720 0L360 0L0 0Z" fill="#888277"></path></svg>